<?xml version="1.0" standalone="no"?>
<!DOCTYPE svg PUBLIC "-//W3C//DTD SVG 20010904//EN"
 "http://www.w3.org/TR/2001/REC-SVG-20010904/DTD/svg10.dtd">
<svg version="1.0" xmlns="http://www.w3.org/2000/svg"
 width="318.000000pt" height="318.000000pt" viewBox="0 0 318.000000 318.000000"
 preserveAspectRatio="xMidYMid meet">
<metadata>
Created by potrace 1.11, written by Peter Selinger 2001-2013
</metadata>
<g transform="translate(0.000000,318.000000) scale(0.100000,-0.100000)"
fill="#000000" stroke="none">
<path d="M2293 2380 c-12 -5 -42 -11 -66 -14 -96 -11 -183 -61 -264 -150 -100
-109 -148 -224 -188 -456 -14 -85 -30 -173 -35 -195 -5 -22 -11 -53 -14 -70
-3 -16 -8 -41 -11 -55 -39 -194 -38 -200 39 -200 120 0 261 147 331 348 23 65
43 161 39 190 -1 6 -2 23 -3 37 0 14 -10 34 -21 45 -16 16 -24 18 -50 9 -31
-11 -105 -78 -153 -139 l-28 -35 7 40 c12 74 73 301 98 367 52 139 69 155 167
164 80 7 137 34 167 77 32 48 30 55 -15 37z m-281 -640 c3 -45 -13 -140 -34
-208 -39 -127 -82 -188 -143 -202 -34 -8 -35 -7 -35 21 0 75 100 319 163 394
31 38 46 36 49 -5z"/>
<path d="M1899 2286 c-3 -3 -36 -10 -73 -16 -103 -16 -170 -52 -251 -134 -122
-124 -160 -216 -215 -526 -6 -30 -16 -89 -24 -130 -8 -41 -18 -90 -21 -109 -7
-43 -45 -108 -85 -146 l-31 -30 6 68 c4 38 8 76 10 85 24 119 50 222 70 286
39 121 36 126 -40 68 -48 -36 -51 -41 -81 -142 -16 -58 -42 -127 -56 -155 -30
-59 -99 -155 -111 -155 -5 0 -6 19 -3 43 3 23 9 62 12 87 3 25 21 105 40 179
21 81 31 138 25 144 -10 10 -48 -12 -104 -60 -28 -25 -34 -35 -23 -39 13 -5
13 -11 0 -47 -15 -40 -47 -169 -59 -232 -3 -16 -7 -62 -10 -102 -3 -55 -1 -76
10 -87 14 -13 19 -13 49 5 35 20 105 91 142 143 l21 29 -1 -109 -1 -109 28 -3
c23 -3 39 8 95 65 66 67 67 68 64 36 -5 -39 24 -58 78 -50 62 8 112 38 176
103 95 98 172 272 179 407 9 169 -66 165 -218 -13 -44 -51 -46 -69 9 152 55
222 101 335 147 359 11 7 53 15 93 20 80 9 123 30 159 80 14 18 25 34 25 36 0
5 -26 4 -31 -1z m-294 -634 c13 -61 -35 -259 -82 -340 -27 -47 -74 -82 -110
-82 -28 0 -28 6 -4 95 32 119 83 234 140 313 37 49 47 52 56 14z"/>
<path d="M3055 2225 c-114 -29 -144 -45 -211 -110 -67 -66 -94 -121 -94 -195
0 -70 23 -120 104 -229 90 -122 100 -145 100 -221 0 -70 -16 -111 -60 -155
-83 -83 -248 -94 -283 -18 -16 34 -14 59 9 103 24 47 24 50 6 50 -25 0 -135
-127 -142 -165 -16 -85 44 -134 160 -130 185 7 405 204 423 380 7 64 -19 126
-94 231 -71 98 -104 168 -108 228 -5 92 21 120 117 130 86 8 144 43 178 105
14 26 11 26 -105 -4z"/>
<path d="M2418 2114 c-15 -8 -40 -13 -56 -12 -30 2 -95 -40 -113 -74 -30 -56
84 -15 171 62 46 40 45 50 -2 24z"/>
<path d="M520 2085 c-259 -50 -512 -277 -512 -458 0 -43 4 -55 26 -74 32 -27
81 -30 115 -7 l22 16 -21 23 c-91 97 50 321 255 407 67 28 113 37 183 34 84
-4 117 -17 142 -58 25 -42 25 -83 -1 -160 -35 -105 -121 -212 -206 -257 -34
-17 -29 -38 7 -33 63 9 112 -22 149 -96 58 -115 2 -342 -109 -446 -74 -70
-183 -116 -272 -116 -44 0 -49 11 -13 30 36 19 63 67 70 125 4 28 8 57 10 65
3 8 7 33 10 55 9 59 55 346 60 375 3 14 14 77 25 140 12 63 35 155 51 203 17
49 28 92 24 95 -13 13 -94 -41 -124 -83 -45 -63 -76 -161 -95 -303 -8 -62 -27
-211 -31 -247 -13 -110 -57 -368 -71 -417 -7 -24 -26 -23 -59 4 -44 35 -57 77
-41 133 14 45 14 46 -7 39 -49 -14 -107 -96 -107 -149 0 -43 28 -83 73 -107
35 -18 59 -22 137 -22 134 0 261 43 386 130 108 76 168 156 210 281 62 182 14
331 -120 377 l-35 12 44 35 c135 110 206 275 160 373 -28 59 -88 88 -188 91
-45 1 -111 -3 -147 -10z"/>
<path d="M2635 2052 c-36 -8 -120 -68 -166 -120 -63 -70 -112 -177 -134 -292
-8 -42 -51 -113 -78 -129 -18 -12 -19 -10 -13 46 7 56 40 197 70 295 8 26 12
50 8 52 -23 14 -156 -87 -135 -102 9 -6 5 -34 -17 -115 -40 -150 -56 -289 -35
-307 18 -15 70 18 129 80 53 55 56 57 56 32 0 -77 40 -137 87 -128 111 22 317
241 308 329 -1 12 -3 28 -4 35 -3 30 -22 5 -65 -83 -72 -147 -143 -207 -190
-159 -17 16 -19 31 -18 102 1 33 -2 43 -13 39 -21 -9 -26 20 -7 39 15 16 17
16 22 -5 5 -21 6 -21 50 11 56 40 126 111 163 166 83 118 73 234 -18 214z
m-48 -153 c-8 -64 -36 -115 -92 -169 l-47 -45 7 45 c10 64 51 168 81 207 22
29 28 32 41 21 11 -9 14 -24 10 -59z"/>
<path d="M3022 1278 c-7 -7 -12 -24 -12 -38 0 -14 5 -31 12 -38 28 -28 88 -2
88 38 0 40 -60 66 -88 38z m68 -13 c16 -19 -1 -65 -24 -65 -41 0 -56 23 -40
64 8 20 48 21 64 1z"/>
<path d="M3038 1252 c-3 -11 -2 -26 3 -33 6 -10 9 -6 9 14 0 15 5 27 11 27 6
0 8 -8 4 -19 -3 -11 -2 -22 3 -24 4 -3 8 6 7 21 0 32 -30 43 -37 14z"/>
<path d="M1635 1068 c1 -35 -4 -66 -9 -70 -6 -4 1 -8 15 -8 23 0 26 3 21 25
-2 14 2 33 9 42 8 10 9 14 2 10 -8 -5 -13 3 -15 25 -2 17 -8 33 -14 35 -7 2
-10 -18 -9 -59z"/>
<path d="M1739 1103 c0 -16 -1 -47 -2 -71 -2 -32 2 -42 14 -42 13 0 15 11 13
62 -2 40 1 65 9 70 8 5 4 8 -10 8 -18 0 -23 -6 -24 -27z"/>
<path d="M1846 1113 c-4 -9 -4 -18 -1 -21 3 -3 5 1 5 9 0 11 2 11 10 -1 14
-22 12 -40 -5 -40 -8 0 -15 6 -16 13 0 6 -7 -6 -16 -28 -9 -22 -21 -43 -27
-47 -6 -5 -2 -8 10 -8 12 0 22 6 21 13 -1 38 4 47 28 47 25 0 49 -34 38 -52
-2 -5 8 -8 24 -8 16 0 23 3 16 8 -14 9 -55 110 -49 121 3 4 -4 7 -14 8 -10 1
-21 -5 -24 -14z"/>
<path d="M1945 1105 c8 -11 19 -41 26 -67 6 -27 15 -48 19 -48 5 0 16 24 26
53 l17 52 24 -54 c13 -29 26 -52 28 -50 10 11 51 139 44 139 -4 0 -14 -19 -20
-42 -18 -63 -27 -66 -41 -15 -7 26 -17 47 -23 47 -7 0 -18 -18 -25 -41 -8 -22
-17 -42 -21 -45 -7 -4 -25 72 -21 88 1 4 -9 7 -22 6 -21 -2 -22 -4 -11 -23z"/>
<path d="M2186 1105 c-9 -33 -6 -42 6 -15 10 24 10 24 18 5 13 -31 12 -35 -13
-35 -17 0 -28 -10 -40 -35 -15 -31 -15 -35 -1 -35 8 0 13 3 11 8 -11 18 13 52
38 52 24 0 29 -9 28 -47 -1 -7 9 -13 22 -13 l23 0 -19 37 c-10 20 -22 51 -25
69 -7 38 -39 44 -48 9z"/>
<path d="M2310 1060 c0 -66 1 -70 23 -70 12 0 17 4 12 8 -6 4 -11 35 -10 70 0
43 -4 62 -12 62 -9 0 -13 -21 -13 -70z"/>
<path d="M2388 1117 c6 -7 9 -38 8 -70 -1 -45 2 -57 14 -57 12 0 14 12 10 67
-4 54 -8 67 -23 69 -13 2 -15 -1 -9 -9z"/>
</g>
</svg>
