<?xml version="1.0" encoding="utf-8"?><svg xmlns="http://www.w3.org/2000/svg" xmlns:xlink="http://www.w3.org/1999/xlink"><symbol viewBox="0 0 31.059 31.059" id="clock" xmlns="http://www.w3.org/2000/svg"><path d="M15.529 31.059C6.966 31.059 0 24.093 0 15.529 0 6.967 6.966 0 15.529 0s15.529 6.967 15.529 15.529c.001 8.564-6.966 15.53-15.529 15.53zm0-29.284c-7.584 0-13.754 6.17-13.754 13.754 0 7.585 6.17 13.755 13.754 13.755s13.754-6.17 13.754-13.755c.001-7.584-6.169-13.754-13.754-13.754z"/><path d="M20.292 21.179a.883.883 0 0 1-.628-.26l-4.762-4.762a.886.886 0 0 1-.26-.628V5.454a.887.887 0 0 1 1.775 0v9.708l4.502 4.502a.887.887 0 0 1-.627 1.515z"/></symbol><symbol viewBox="0 0 47.971 47.971" id="close" xmlns="http://www.w3.org/2000/svg"><path d="M28.228 23.986L47.092 5.122a2.998 2.998 0 0 0 0-4.242 2.998 2.998 0 0 0-4.242 0L23.986 19.744 5.121.88a2.998 2.998 0 0 0-4.242 0 2.998 2.998 0 0 0 0 4.242l18.865 18.864L.879 42.85a2.998 2.998 0 1 0 4.242 4.241l18.865-18.864L42.85 47.091c.586.586 1.354.879 2.121.879s1.535-.293 2.121-.879a2.998 2.998 0 0 0 0-4.242L28.228 23.986z"/></symbol><symbol viewBox="0 0 96.124 96.123" id="facebook" xmlns="http://www.w3.org/2000/svg"><path d="M72.089.02L59.624 0C45.62 0 36.57 9.285 36.57 23.656v10.907H24.037a1.96 1.96 0 0 0-1.96 1.961v15.803a1.96 1.96 0 0 0 1.96 1.96H36.57v39.876a1.96 1.96 0 0 0 1.96 1.96h16.352a1.96 1.96 0 0 0 1.96-1.96V54.287h14.654a1.96 1.96 0 0 0 1.96-1.96l.006-15.803a1.963 1.963 0 0 0-1.961-1.961H56.842v-9.246c0-4.444 1.059-6.7 6.848-6.7l8.397-.003a1.96 1.96 0 0 0 1.959-1.96V1.98A1.96 1.96 0 0 0 72.089.02z"/></symbol><symbol viewBox="0 0 32 34" id="icon-bag" xmlns="http://www.w3.org/2000/svg"><g fill-rule="evenodd"><rect width="32" height="26" y="8" rx="2"/><rect width="16" height="24" x="8" y="1" rx="4"/><path d="M23 8h2v6h-2zM7 8h2v6H7z"/><circle cx="24" cy="14" r="2"/><circle cx="8" cy="14" r="2"/></g></symbol><symbol viewBox="0 0 400 400" id="info" xmlns="http://www.w3.org/2000/svg"><path d="M199.992 0C89.719 0 0 89.72 0 200s89.719 200 199.992 200C310.273 400 400 310.28 400 200S310.273 0 199.992 0zm0 373.77C104.18 373.77 26.23 295.816 26.23 200c0-95.817 77.949-173.769 173.762-173.769 95.824 0 173.776 77.953 173.776 173.769.001 95.816-77.952 173.77-173.776 173.77z"/><path d="M196.293 125.97c9.656 0 17.488-7.832 17.488-17.489s-7.832-17.489-17.488-17.489c-9.664 0-17.488 7.832-17.488 17.489s7.824 17.489 17.488 17.489zm27.797 153.616h-10.969V154.564c0-7.243-5.871-13.116-13.113-13.116h-24.094c-7.242 0-13.113 5.873-13.113 13.116s5.871 13.115 13.113 13.115h10.977v111.907h-10.977c-7.242 0-13.113 5.872-13.113 13.115 0 7.242 5.871 13.115 13.113 13.115h48.176c7.246 0 13.117-5.873 13.117-13.115 0-7.243-5.871-13.115-13.117-13.115z"/></symbol><symbol viewBox="0 0 169.063 169.063" id="instagram" xmlns="http://www.w3.org/2000/svg"><path d="M122.406 0H46.654C20.929 0 0 20.93 0 46.655v75.752c0 25.726 20.929 46.655 46.654 46.655h75.752c25.727 0 46.656-20.93 46.656-46.655V46.655C169.063 20.93 148.133 0 122.406 0zm31.657 122.407c0 17.455-14.201 31.655-31.656 31.655H46.654C29.2 154.063 15 139.862 15 122.407V46.655C15 29.201 29.2 15 46.654 15h75.752c17.455 0 31.656 14.201 31.656 31.655v75.752z"/><path d="M84.531 40.97c-24.021 0-43.563 19.542-43.563 43.563 0 24.02 19.542 43.561 43.563 43.561s43.563-19.541 43.563-43.561c0-24.021-19.542-43.563-43.563-43.563zm0 72.123c-15.749 0-28.563-12.812-28.563-28.561 0-15.75 12.813-28.563 28.563-28.563s28.563 12.813 28.563 28.563c0 15.749-12.814 28.561-28.563 28.561zm45.39-84.842c-2.89 0-5.729 1.17-7.77 3.22a11.053 11.053 0 0 0-3.23 7.78c0 2.891 1.18 5.73 3.23 7.78 2.04 2.04 4.88 3.22 7.77 3.22 2.9 0 5.73-1.18 7.78-3.22 2.05-2.05 3.22-4.89 3.22-7.78 0-2.9-1.17-5.74-3.22-7.78-2.04-2.05-4.88-3.22-7.78-3.22z"/></symbol><symbol viewBox="0 0 159 80" id="logo" xmlns="http://www.w3.org/2000/svg"><defs><path id="ga" d="M0 .043h43.596v65.399H0z"/><path id="gc" d="M.13.091h34.535v55.064H.13z"/></defs><g fill-rule="evenodd"><g transform="translate(0 14.505)"><mask id="gb"><use xlink:href="#ga"/></mask><path d="M32.959.043c8.453 0 11.347 4.837 10.494 9.722-1.462 8.378-7.814 13.26-11.286 15.643 4.859 0 11.04 5.022 9.254 15.246-3.553 20.35-25.002 24.788-30.787 24.788-9.805 0-10.99-4.939-10.56-7.396.864-4.948 4.675-6.74 5.702-7.108.547-.195.783.228.464.722-.42.65-.789 1.845-.96 2.823-.515 2.95 1.712 7.466 9.386 7.466 5.127 0 17.446-2.628 20.252-18.698 1.458-8.35-2.26-14.299-7.524-14.299-.77 0-1.602.158-1.876.244-.544.173-.63.005-.674-.337-.05-.402.032-.716.664-1.007 2.191-1.007 10.127-6.204 11.92-16.48.556-3.177-.514-7.9-8.09-7.9-12.45 0-21.956 9.905-23.139 16.681-.718 4.111.774 5.53 2.007 6.355.273.183.161.664-.144.905-.982.772-1.847 1.112-3.447 1.112-2.118 0-5.069-1.465-4.22-6.325C2.077 12.566 15.727.043 32.959.043" mask="url(#gb)"/></g><path d="M10.413 75.95c3.034-12.676 4.996-32.665 6.07-38.818 1.548-8.868 4.504-13.034 9.125-14.958.61-.254 2.011-.74 1.345.842-1.983 4.706-2.854 7.71-4.166 15.117-1.963 11.08-4.473 26.968-5.135 31.478-.562 3.83-2.865 5.318-5.662 6.683-.497.243-1.907 1.038-1.577-.344m36.753-37.597c2.294-2.291 5.032-3.971 5.994-4.231.45-.122 1.109.122.675 1.558-.434 1.436-3.89 13.106-4.355 21.02-.045.776.484.48.922-.031 1.804-2.109 4.673-6.09 6.298-9.97.774-1.85 1.927-6.783 2.82-9.441.176-.527.493-1.253 1.164-1.772.671-.52 3.724-2.658 4.133-2.903.409-.244 1.236-.18.776.978-.873 2.2-5.222 15.735-5.6 25.603-.022.565.322.55.89-.03 2.65-2.705 4.111-5.329 5.206-7.925 1.096-2.597.436 2.453-.314 3.95-2.393 4.776-5.668 7.992-8.45 9.596-.8.46-2.514.888-2.765-1.13-.465-3.728.153-7.822.864-10.959-1.163 2.108-5.585 8.509-9.807 10.439-.548.25-1.526.209-1.706-.6-1.524-6.844 3.364-21.117 3.898-22.761.056-.17.006-.311-.202-.28-.685.099-1.326-.227-.441-1.11m70.946 1.856c-1.162 2.108-5.806 8.509-10.028 10.439-.549.25-1.608.236-1.706-.6-.812-6.86 3.145-18.59 3.68-20.236.054-.17.005-.31-.203-.28-.685.1-1.326-.227-.442-1.11 2.295-2.291 5.032-3.972 5.995-4.232.449-.12 1.109.122.675 1.558-.435 1.437-3.67 10.581-4.136 18.494-.046.776.484.482.922-.03 1.804-2.109 4.862-6.099 6.52-9.97.251-.588-.133 3.683-1.277 5.967M89.405 27.756c2.73-16.705 13.283-25.86 22.232-26.596.742-.061 2.951-.251 4.274-1.084.355-.224.846.06.57.672-1.34 2.967-4.779 5.377-8.455 5.377-3.666 0-6.106.02-8.341 5.438-3.159 7.659-5.836 19.92-6.385 23.546 2.891-4.272 7.744-9.37 10.466-9.37 2.895 0 2.512 5.59 2.2 7.639C103.927 46.822 95 57.636 87.558 57.636c-1.405 0-3.803-.305-3.24-2.81.564-2.506 3.361-16.499 5.088-27.07m1.187 25.507c7.205 0 9.295-13.6 9.99-18.182.368-2.423-.063-4.562-.694-4.562-1.513 0-8.464 11.169-10.055 21.65-.148.975.264 1.094.759 1.094"/><path d="M69.125 32.6c2.73-16.706 13.283-25.86 22.232-26.597.742-.061 2.95-.25 4.274-1.084.355-.223.846.061.57.672-1.34 2.967-4.779 5.378-8.455 5.378-3.666 0-6.106.02-8.34 5.438-3.16 7.658-5.836 19.92-6.387 23.546 2.892-4.272 7.745-9.37 10.467-9.37 2.894 0 2.512 5.59 2.2 7.638C83.647 51.666 74.72 62.48 67.278 62.48c-1.405 0-3.803-.306-3.24-2.81.564-2.506 3.361-16.5 5.088-27.07m1.187 25.506c7.205 0 9.295-13.6 9.99-18.182.369-2.423-.063-4.561-.694-4.561-1.513 0-8.464 11.168-10.055 21.65-.148.975.264 1.093.759 1.093m45.582-43.293c.82-.511 1.388-.536 1.833-.369.165.062.502.185 1.008.185 1.06 0 3.366-1.502 3.689-1.714.497-.326.998.135.354.663-.484.396-4.478 4.228-8.749 5.849-.465.177-1.2.182-1.502-.046-.373-.282-.72-.745-.214-1.308 1.315-1.464 2.96-2.873 3.581-3.26m.786 23.034c3.172-18.168 15.622-21.182 16.286-21.182 2.457 0 2.789 2.693 2.476 4.48-1.42 8.138-10.41 14.767-14.486 17.12-.9.52-1.013-1.62-.37-2.078.743-.53 7.561-3.93 8.778-10.896.346-1.985.36-4.074-.94-4.074-1.894 0-4.955 7.027-5.931 12.618-2.113 12.1.727 12.31 2.326 12.31 3.247 0 6.87-7.096 8.937-11.883.479-1.11.725-1.914 1.376-1.914.676 0 .883 1.74.61 3.3-1.14 6.528-11.823 15.765-16.053 15.765-2.119 0-4.979-2.284-3.009-13.566"/><g transform="translate(123.816 6.732)"><mask id="gd"><use xlink:href="#gc"/></mask><path d="M13.716 14.636C14.78 8.542 22.172 2.225 29.161 1.418c1.865-.215 3.893-.597 4.524-1.065.795-.59 1.187-.074.87.473-.53.914-2.947 4.99-7.428 5.594-3.842.517-6.976-.312-7.699 3.831-1.853 10.612 11.76 17.41 10.242 26.107-1.895 10.855-13.978 18.275-20.698 18.748-7.145.502-9.327-2.925-8.755-6.204.628-3.593 5.508-7.155 6.869-8.644.562-.615 1.138-.397.99.369-.148.767-1.453 2.477-1.823 4.597-.528 3.025 1.535 5.74 6.93 5.36 4.693-.33 9.764-3.42 10.827-9.513 1.832-10.49-12.246-15.252-10.294-26.435" mask="url(#gd)"/></g><path d="M81.799 66.91c0 .747-.01 2.4-.05 2.862-.186.04-.796.128-1.022.138l-.06.206c.296-.02 1.22-.039 1.732-.039.423 0 1.396.02 1.603.04l-.05-.207a7.98 7.98 0 0 1-.953-.138c-.04-.364-.079-1.623-.079-2.626v-.344c.138-.03 3.62-.216 4.082-.226v.57c0 1.043 0 2.292-.06 2.626-.176.04-.825.128-.973.138l-.05.206c.335-.02 1.26-.039 1.683-.039.462 0 1.465.02 1.652.04l-.05-.207c-.196-.01-.796-.099-.992-.138-.07-.334-.09-1.957-.09-3.098v-.689c0-.265.02-2.291.07-2.488.285-.04.806-.118 1.003-.138l.059-.206c-.177.02-1.003.04-1.643.04-.61 0-1.524-.02-1.691-.04l.049.206a8.9 8.9 0 0 1 .974.138c.059.246.059 1.505.059 2.272v.452c-.394.07-3.836.03-4.082.03v-.482c0-.846.04-2.006.079-2.272.157-.04.679-.118.954-.138l.049-.206c-.157.02-.993.04-1.603.04-.63 0-1.564-.02-1.731-.04l.049.206c.246.02.856.099 1.033.138.04.325.049 2.174.049 2.488v.925z"/><path d="M93.817 66.595l-2.065-.04c.098-.324.737-2.025 1.042-2.9h.02c.167.54.787 2.291 1.003 2.94zm.06 3.521c.265-.02 1.376-.039 1.662-.039.52 0 1.514.02 1.632.04l-.03-.207c-.294-.04-.58-.079-.865-.138-.452-.866-1.062-2.518-1.337-3.275-.374-1.033-.915-2.577-1.033-3.01.226-.059.492-.098.748-.128l.029-.206c-.285.02-1.269.04-1.682.04a33.9 33.9 0 0 1-1.278-.04l.01.206c.235.03.56.07.777.128-.139.374-2.097 5.665-2.452 6.285-.266.06-.562.108-.848.138l-.03.206c.227-.02.888-.039 1.144-.039.286 0 1.182.02 1.487.04l-.04-.207c-.275-.03-.6-.07-.845-.138.098-.757.629-2.616.688-2.754.364-.059 1.928-.128 2.272-.128.157.285.856 2.37 1.033 2.882-.305.069-.65.108-.994.138l-.048.206zm2.575-6.756c.295.049.501.078.737.137.532 1.17 1.948 6.265 2.292 7.091.531-1.22 2.016-5.035 2.35-5.881.286.816 2.086 5.31 2.351 5.881.1-.334 2.255-6.786 2.54-7.091a3.55 3.55 0 0 1 .632-.138l.03-.206c-.306.02-.71.04-1.282.04-.592 0-1.083-.02-1.29-.04l.05.206c.324.05.639.08.924.138-.06.954-1.23 4.642-1.357 5.085h-.02c-.325-.826-1.574-4.269-1.79-4.83.186-.078.491-.107.786-.156l.03-.207a25.432 25.432 0 0 1-2.803 0l.049.207c.167.029.679.098.964.157-.217.915-1.643 4.435-1.76 4.77h-.02c-.177-.452-1.27-4.593-1.368-5.026.237-.04.758-.108.896-.138l.049-.206c-.227.02-.748.04-1.584.04-.757 0-1.17-.02-1.445-.04l.039.206zm14.633 3.235l-2.065-.04c.098-.324.737-2.025 1.042-2.9h.02c.167.54.786 2.291 1.003 2.94zm.06 3.521c.265-.02 1.376-.039 1.662-.039.52 0 1.514.02 1.632.04l-.03-.207c-.294-.04-.58-.079-.865-.138-.452-.866-1.062-2.518-1.337-3.275-.374-1.033-.915-2.577-1.033-3.01.226-.059.492-.098.747-.128l.03-.206c-.285.02-1.269.04-1.682.04a33.9 33.9 0 0 1-1.278-.04l.01.206c.235.03.56.07.776.128-.138.374-2.096 5.665-2.451 6.285a7.61 7.61 0 0 1-.848.138l-.03.206c.227-.02.888-.039 1.144-.039.286 0 1.182.02 1.487.04l-.04-.207a5.63 5.63 0 0 1-.846-.138c.099-.757.63-2.616.689-2.754.364-.059 1.928-.128 2.272-.128.157.285.855 2.37 1.032 2.882a7.594 7.594 0 0 1-.993.138l-.049.206zm5.575-4.072c0-1.21.009-2.35.048-2.547.354-.04.836-.118 1.033-.138l.05-.206c-.168.02-1.014.04-1.515.04-.777 0-1.682-.02-1.87-.04l.05.206c.187.02.836.099 1.033.138.04.335.049 2.174.049 2.498v.58c0 .964-.01 2.784-.05 3.197-.206.04-.875.128-1.042.138l-.04.206c.296-.02 1.2-.039 1.535-.039.61 0 1.633.02 1.85.04l-.05-.207c-.197-.02-.787-.079-1.033-.138-.04-.197-.049-1.84-.049-3.118v-.61zm4.326 0c0-1.21.01-2.35.049-2.547.354-.04.836-.118 1.032-.138l.05-.206c-.168.02-1.013.04-1.515.04-.777 0-1.682-.02-1.869-.04l.05.206c.186.02.836.099 1.032.138.04.335.05 2.174.05 2.498v.58c0 .964-.01 2.784-.05 3.197-.206.04-.875.128-1.042.138l-.04.206c.295-.02 1.2-.039 1.535-.039.61 0 1.632.02 1.849.04l-.05-.207c-.196-.02-.786-.079-1.032-.138-.04-.197-.05-1.84-.05-3.118v-.61zm31.3-8.668v-.934h.623c.319 0 .658.07.658.443 0 .464-.346.491-.734.491h-.547zm0 .388h.526l.796 1.308h.512l-.858-1.329c.443-.055.782-.29.782-.83 0-.595-.353-.858-1.066-.858h-1.148v3.017h.456v-1.308zm-1.577-.208c0-1.238.934-2.173 2.131-2.173 1.183 0 2.117.935 2.117 2.173 0 1.26-.934 2.187-2.117 2.187-1.197 0-2.131-.927-2.131-2.187zm2.131 2.623c1.426 0 2.644-1.107 2.644-2.623 0-1.501-1.218-2.609-2.644-2.609-1.44 0-2.657 1.108-2.657 2.61 0 1.515 1.218 2.622 2.657 2.622z"/></g></symbol><symbol viewBox="0 0 129 129" id="right" xmlns="http://www.w3.org/2000/svg"><path d="M40.4 121.3c-.8.8-1.8 1.2-2.9 1.2s-2.1-.4-2.9-1.2c-1.6-1.6-1.6-4.2 0-5.8l51-51-51-51c-1.6-1.6-1.6-4.2 0-5.8 1.6-1.6 4.2-1.6 5.8 0l53.9 53.9c1.6 1.6 1.6 4.2 0 5.8l-53.9 53.9z"/></symbol><symbol viewBox="0 0 31.49 31.49" id="right-arrow" xmlns="http://www.w3.org/2000/svg"><path d="M21.205 5.007a1.112 1.112 0 0 0-1.587 0 1.12 1.12 0 0 0 0 1.571l8.047 8.047H1.111A1.106 1.106 0 0 0 0 15.737c0 .619.492 1.127 1.111 1.127h26.554l-8.047 8.032c-.429.444-.429 1.159 0 1.587a1.112 1.112 0 0 0 1.587 0l9.952-9.952a1.093 1.093 0 0 0 0-1.571l-9.952-9.953z"/></symbol></svg>